<?xml version="1.0" encoding="UTF-8" standalone="no"?>
<svg
   width="394"
   height="394"
   viewBox="-197 -197 394 394"
   version="1.1"
   id="svg83"
   sodipodi:docname="flowd-go.svg"
   xml:space="preserve"
   inkscape:version="1.3.2 (091e20e, 2023-11-25)"
   xmlns:inkscape="http://www.inkscape.org/namespaces/inkscape"
   xmlns:sodipodi="http://sodipodi.sourceforge.net/DTD/sodipodi-0.dtd"
   xmlns:xlink="http://www.w3.org/1999/xlink"
   xmlns="http://www.w3.org/2000/svg"
   xmlns:svg="http://www.w3.org/2000/svg"><sodipodi:namedview
     id="namedview83"
     pagecolor="#ffffff"
     bordercolor="#000000"
     borderopacity="0.25"
     inkscape:showpageshadow="2"
     inkscape:pageopacity="0.0"
     inkscape:pagecheckerboard="0"
     inkscape:deskcolor="#d1d1d1"
     inkscape:zoom="2.9907623"
     inkscape:cx="204.6301"
     inkscape:cy="199.78184"
     inkscape:window-width="2560"
     inkscape:window-height="1440"
     inkscape:window-x="0"
     inkscape:window-y="0"
     inkscape:window-maximized="0"
     inkscape:current-layer="svg83"
     inkscape:export-bgcolor="#ffffff00" /><defs
     id="defs1"><marker
       style="overflow:visible"
       id="marker86"
       refX="0"
       refY="0"
       orient="auto-start-reverse"
       inkscape:stockid="Triangle arrow"
       markerWidth="1"
       markerHeight="1"
       viewBox="0 0 1 1"
       inkscape:isstock="true"
       inkscape:collect="always"
       preserveAspectRatio="xMidYMid"><path
         transform="scale(0.5)"
         style="fill:context-stroke;fill-rule:evenodd;stroke:context-stroke;stroke-width:1pt"
         d="M 5.77,0 -2.88,5 V -5 Z"
         id="path86" /></marker><marker
       id="flx"
       viewBox="0 0 2 2"
       refX="0"
       refY="1"
       markerUnits="strokeWidth"
       markerWidth="5"
       markerHeight="5"
       orient="auto"
       preserveAspectRatio="xMidYMid"><polygon
         points="0,0 2,1 0,2"
         id="polygon1" /></marker><clipPath
       clipPathUnits="userSpaceOnUse"
       id="clipPath86"><rect
         x="-170"
         y="-170"
         width="340"
         height="340"
         id="rect87"
         style="fill:none;fill-opacity:1;stroke:#f1f11b;stroke-opacity:1" /></clipPath></defs><g
     fill="none"
     stroke-width="1"
     stroke="#000"
     id="g83"
     style="stroke:#2c46f9;stroke-opacity:1;fill:none;fill-opacity:1"
     clip-path="url(#clipPath86)"
     inkscape:export-filename="glowd.png"
     inkscape:export-xdpi="300"
     inkscape:export-ydpi="300"><rect
       x="-170"
       y="-170"
       width="340"
       height="340"
       id="rect1"
       style="display:none;fill:#000000;fill-opacity:1;stroke:#2c46f9;stroke-opacity:1" /><g
       id="qtr"
       marker-end="url(#flx)"
       style="stroke:#2c46f9;stroke-opacity:1;fill:none;fill-opacity:1"><path
         d="M10,10l10,-10"
         id="path1"
         style="stroke:#2c46f9;stroke-opacity:1;fill:none;fill-opacity:1;marker-end:url(#marker86)" /><path
         d="M10,30l30,-10"
         id="path2"
         style="stroke:#2c46f9;stroke-opacity:1;fill:none;fill-opacity:1;marker-end:url(#marker86)" /><path
         d="M10,50l50,-10"
         id="path3"
         style="stroke:#2c46f9;stroke-opacity:1;fill:none;fill-opacity:1;marker-end:url(#marker86)" /><path
         d="M10,70l70,-10"
         id="path4"
         style="stroke:#2c46f9;stroke-opacity:1;fill:none;fill-opacity:1;marker-end:url(#marker86)" /><path
         d="M10,90l90,-10"
         id="path5"
         style="stroke:#2c46f9;stroke-opacity:1;fill:none;fill-opacity:1;marker-end:url(#marker86)" /><path
         d="M10,110l110,-10"
         id="path6"
         style="stroke:#2c46f9;stroke-opacity:1;fill:none;fill-opacity:1;marker-end:url(#marker86)" /><path
         d="M10,130l130,-10"
         id="path7"
         style="stroke:#2c46f9;stroke-opacity:1;fill:none;fill-opacity:1;marker-end:url(#marker86)" /><path
         d="M10,150l150,-10"
         id="path8"
         style="stroke:#2c46f9;stroke-opacity:1;fill:none;fill-opacity:1;marker-end:url(#marker86)" /><path
         d="M10,170l170,-10"
         id="path9"
         style="stroke:#2c46f9;stroke-opacity:1;fill:none;fill-opacity:1;marker-end:url(#marker86)" /><path
         d="M30,10l10,-30"
         id="path10"
         style="stroke:#2c46f9;stroke-opacity:1;fill:none;fill-opacity:1;marker-end:url(#marker86)" /><path
         d="M30,30l30,-30"
         id="path11"
         style="stroke:#2c46f9;stroke-opacity:1;fill:none;fill-opacity:1;marker-end:url(#marker86)" /><path
         d="M30,50l50,-30"
         id="path12"
         style="stroke:#2c46f9;stroke-opacity:1;fill:none;fill-opacity:1;marker-end:url(#marker86)" /><path
         d="M30,70l70,-30"
         id="path13"
         style="stroke:#2c46f9;stroke-opacity:1;fill:none;fill-opacity:1;marker-end:url(#marker86)" /><path
         d="M30,90l90,-30"
         id="path14"
         style="stroke:#2c46f9;stroke-opacity:1;fill:none;fill-opacity:1;marker-end:url(#marker86)" /><path
         d="M30,110l110,-30"
         id="path15"
         style="stroke:#2c46f9;stroke-opacity:1;fill:none;fill-opacity:1;marker-end:url(#marker86)" /><path
         d="M30,130l130,-30"
         id="path16"
         style="stroke:#2c46f9;stroke-opacity:1;fill:none;fill-opacity:1;marker-end:url(#marker86)" /><path
         d="M30,150l150,-30"
         id="path17"
         style="stroke:#2c46f9;stroke-opacity:1;fill:none;fill-opacity:1;marker-end:url(#marker86)" /><path
         d="M30,170l170,-30"
         id="path18"
         style="stroke:#2c46f9;stroke-opacity:1;fill:none;fill-opacity:1;marker-end:url(#marker86)" /><path
         d="M50,10l10,-50"
         id="path19"
         style="stroke:#2c46f9;stroke-opacity:1;fill:none;fill-opacity:1;marker-end:url(#marker86)" /><path
         d="M50,30l30,-50"
         id="path20"
         style="stroke:#2c46f9;stroke-opacity:1;fill:none;fill-opacity:1;marker-end:url(#marker86)" /><path
         d="M50,50l50,-50"
         id="path21"
         style="stroke:#2c46f9;stroke-opacity:1;fill:none;fill-opacity:1;marker-end:url(#marker86)" /><path
         d="M50,70l70,-50"
         id="path22"
         style="stroke:#2c46f9;stroke-opacity:1;fill:none;fill-opacity:1;marker-end:url(#marker86)" /><path
         d="M50,90l90,-50"
         id="path23"
         style="stroke:#2c46f9;stroke-opacity:1;fill:none;fill-opacity:1;marker-end:url(#marker86)" /><path
         d="M50,110l110,-50"
         id="path24"
         style="stroke:#2c46f9;stroke-opacity:1;fill:none;fill-opacity:1;marker-end:url(#marker86)" /><path
         d="M50,130l130,-50"
         id="path25"
         style="stroke:#2c46f9;stroke-opacity:1;fill:none;fill-opacity:1;marker-end:url(#marker86)" /><path
         d="M50,150l150,-50"
         id="path26"
         style="stroke:#2c46f9;stroke-opacity:1;fill:none;fill-opacity:1;marker-end:url(#marker86)" /><path
         d="M50,170l170,-50"
         id="path27"
         style="stroke:#2c46f9;stroke-opacity:1;fill:none;fill-opacity:1;marker-end:url(#marker86)" /><path
         d="M70,10l10,-70"
         id="path28"
         style="stroke:#2c46f9;stroke-opacity:1;fill:none;fill-opacity:1;marker-end:url(#marker86)" /><path
         d="M70,30l30,-70"
         id="path29"
         style="stroke:#2c46f9;stroke-opacity:1;fill:none;fill-opacity:1;marker-end:url(#marker86)" /><path
         d="M70,50l50,-70"
         id="path30"
         style="stroke:#2c46f9;stroke-opacity:1;fill:none;fill-opacity:1;marker-end:url(#marker86)" /><path
         d="M70,70l70,-70"
         id="path31"
         style="stroke:#2c46f9;stroke-opacity:1;fill:none;fill-opacity:1;marker-end:url(#marker86)" /><path
         d="M70,90l90,-70"
         id="path32"
         style="stroke:#2c46f9;stroke-opacity:1;fill:none;fill-opacity:1;marker-end:url(#marker86)" /><path
         d="M70,110l110,-70"
         id="path33"
         style="stroke:#2c46f9;stroke-opacity:1;fill:none;fill-opacity:1;marker-end:url(#marker86)" /><path
         d="M70,130l130,-70"
         id="path34"
         style="stroke:#2c46f9;stroke-opacity:1;fill:none;fill-opacity:1;marker-end:url(#marker86)" /><path
         d="M70,150l150,-70"
         id="path35"
         style="stroke:#2c46f9;stroke-opacity:1;fill:none;fill-opacity:1;marker-end:url(#marker86)" /><path
         d="M70,170l170,-70"
         id="path36"
         style="stroke:#2c46f9;stroke-opacity:1;fill:none;fill-opacity:1;marker-end:url(#marker86)" /><path
         d="M90,10l10,-90"
         id="path37"
         style="stroke:#2c46f9;stroke-opacity:1;fill:none;fill-opacity:1;marker-end:url(#marker86)" /><path
         d="M90,30l30,-90"
         id="path38"
         style="stroke:#2c46f9;stroke-opacity:1;fill:none;fill-opacity:1;marker-end:url(#marker86)" /><path
         d="M90,50l50,-90"
         id="path39"
         style="stroke:#2c46f9;stroke-opacity:1;fill:none;fill-opacity:1;marker-end:url(#marker86)" /><path
         d="M90,70l70,-90"
         id="path40"
         style="stroke:#2c46f9;stroke-opacity:1;fill:none;fill-opacity:1;marker-end:url(#marker86)" /><path
         d="M90,90l90,-90"
         id="path41"
         style="stroke:#2c46f9;stroke-opacity:1;fill:none;fill-opacity:1;marker-end:url(#marker86)" /><path
         d="M90,110l110,-90"
         id="path42"
         style="stroke:#2c46f9;stroke-opacity:1;fill:none;fill-opacity:1;marker-end:url(#marker86)" /><path
         d="M90,130l130,-90"
         id="path43"
         style="stroke:#2c46f9;stroke-opacity:1;fill:none;fill-opacity:1;marker-end:url(#marker86)" /><path
         d="M90,150l150,-90"
         id="path44"
         style="stroke:#2c46f9;stroke-opacity:1;fill:none;fill-opacity:1;marker-end:url(#marker86)" /><path
         d="M90,170l170,-90"
         id="path45"
         style="stroke:#2c46f9;stroke-opacity:1;fill:none;fill-opacity:1;marker-end:url(#marker86)" /><path
         d="M110,10l10,-110"
         id="path46"
         style="stroke:#2c46f9;stroke-opacity:1;fill:none;fill-opacity:1;marker-end:url(#marker86)" /><path
         d="M110,30l30,-110"
         id="path47"
         style="stroke:#2c46f9;stroke-opacity:1;fill:none;fill-opacity:1;marker-end:url(#marker86)" /><path
         d="M110,50l50,-110"
         id="path48"
         style="stroke:#2c46f9;stroke-opacity:1;fill:none;fill-opacity:1;marker-end:url(#marker86)" /><path
         d="M110,70l70,-110"
         id="path49"
         style="stroke:#2c46f9;stroke-opacity:1;fill:none;fill-opacity:1;marker-end:url(#marker86)" /><path
         d="M110,90l90,-110"
         id="path50"
         style="stroke:#2c46f9;stroke-opacity:1;fill:none;fill-opacity:1;marker-end:url(#marker86)" /><path
         d="M110,110l110,-110"
         id="path51"
         style="stroke:#2c46f9;stroke-opacity:1;fill:none;fill-opacity:1;marker-end:url(#marker86)" /><path
         d="M110,130l130,-110"
         id="path52"
         style="stroke:#2c46f9;stroke-opacity:1;fill:none;fill-opacity:1;marker-end:url(#marker86)" /><path
         d="M110,150l150,-110"
         id="path53"
         style="stroke:#2c46f9;stroke-opacity:1;fill:none;fill-opacity:1;marker-end:url(#marker86)" /><path
         d="M110,170l170,-110"
         id="path54"
         style="stroke:#2c46f9;stroke-opacity:1;fill:none;fill-opacity:1;marker-end:url(#marker86)" /><path
         d="M130,10l10,-130"
         id="path55"
         style="stroke:#2c46f9;stroke-opacity:1;fill:none;fill-opacity:1;marker-end:url(#marker86)" /><path
         d="M130,30l30,-130"
         id="path56"
         style="stroke:#2c46f9;stroke-opacity:1;fill:none;fill-opacity:1;marker-end:url(#marker86)" /><path
         d="M130,50l50,-130"
         id="path57"
         style="stroke:#2c46f9;stroke-opacity:1;fill:none;fill-opacity:1;marker-end:url(#marker86)" /><path
         d="M130,70l70,-130"
         id="path58"
         style="stroke:#2c46f9;stroke-opacity:1;fill:none;fill-opacity:1;marker-end:url(#marker86)" /><path
         d="M130,90l90,-130"
         id="path59"
         style="stroke:#2c46f9;stroke-opacity:1;fill:none;fill-opacity:1;marker-end:url(#marker86)" /><path
         d="M130,110l110,-130"
         id="path60"
         style="stroke:#2c46f9;stroke-opacity:1;fill:none;fill-opacity:1;marker-end:url(#marker86)" /><path
         d="M130,130l130,-130"
         id="path61"
         style="stroke:#2c46f9;stroke-opacity:1;fill:none;fill-opacity:1;marker-end:url(#marker86)" /><path
         d="M130,150l150,-130"
         id="path62"
         style="stroke:#2c46f9;stroke-opacity:1;fill:none;fill-opacity:1;marker-end:url(#marker86)" /><path
         d="M130,170l170,-130"
         id="path63"
         style="stroke:#2c46f9;stroke-opacity:1;fill:none;fill-opacity:1;marker-end:url(#marker86)" /><path
         d="M150,10l10,-150"
         id="path64"
         style="stroke:#2c46f9;stroke-opacity:1;fill:none;fill-opacity:1;marker-end:url(#marker86)" /><path
         d="M150,30l30,-150"
         id="path65"
         style="stroke:#2c46f9;stroke-opacity:1;fill:none;fill-opacity:1;marker-end:url(#marker86)" /><path
         d="M150,50l50,-150"
         id="path66"
         style="stroke:#2c46f9;stroke-opacity:1;fill:none;fill-opacity:1;marker-end:url(#marker86)" /><path
         d="M150,70l70,-150"
         id="path67"
         style="stroke:#2c46f9;stroke-opacity:1;fill:none;fill-opacity:1;marker-end:url(#marker86)" /><path
         d="M150,90l90,-150"
         id="path68"
         style="stroke:#2c46f9;stroke-opacity:1;fill:none;fill-opacity:1;marker-end:url(#marker86)" /><path
         d="M150,110l110,-150"
         id="path69"
         style="stroke:#2c46f9;stroke-opacity:1;fill:none;fill-opacity:1;marker-end:url(#marker86)" /><path
         d="M150,130l130,-150"
         id="path70"
         style="stroke:#2c46f9;stroke-opacity:1;fill:none;fill-opacity:1;marker-end:url(#marker86)" /><path
         d="M150,150l150,-150"
         id="path71"
         style="stroke:#2c46f9;stroke-opacity:1;fill:none;fill-opacity:1;marker-end:url(#marker86)" /><path
         d="M150,170l170,-150"
         id="path72"
         style="stroke:#2c46f9;stroke-opacity:1;fill:none;fill-opacity:1;marker-end:url(#marker86)" /><path
         d="M170,10l10,-170"
         id="path73"
         style="stroke:#2c46f9;stroke-opacity:1;fill:none;fill-opacity:1;marker-end:url(#marker86)" /><path
         d="M170,30l30,-170"
         id="path74"
         style="stroke:#2c46f9;stroke-opacity:1;fill:none;fill-opacity:1;marker-end:url(#marker86)" /><path
         d="M170,50l50,-170"
         id="path75"
         style="stroke:#2c46f9;stroke-opacity:1;fill:none;fill-opacity:1;marker-end:url(#marker86)" /><path
         d="M170,70l70,-170"
         id="path76"
         style="stroke:#2c46f9;stroke-opacity:1;fill:none;fill-opacity:1;marker-end:url(#marker86)" /><path
         d="M170,90l90,-170"
         id="path77"
         style="stroke:#2c46f9;stroke-opacity:1;fill:none;fill-opacity:1;marker-end:url(#marker86)" /><path
         d="M170,110l110,-170"
         id="path78"
         style="stroke:#2c46f9;stroke-opacity:1;fill:none;fill-opacity:1;marker-end:url(#marker86)" /><path
         d="M170,130l130,-170"
         id="path79"
         style="stroke:#2c46f9;stroke-opacity:1;fill:none;fill-opacity:1;marker-end:url(#marker86)" /><path
         d="M170,150l150,-170"
         id="path80"
         style="stroke:#2c46f9;stroke-opacity:1;fill:none;fill-opacity:1;marker-end:url(#marker86)" /><path
         d="M170,170l170,-170"
         id="path81"
         style="stroke:#2c46f9;stroke-opacity:1;fill:none;fill-opacity:1;marker-end:url(#marker86)" /></g><use
       xlink:href="#qtr"
       transform="rotate(90)"
       id="use81"
       style="stroke:#2c46f9;stroke-opacity:1;fill:none;fill-opacity:1" /><use
       xlink:href="#qtr"
       transform="rotate(-90)"
       id="use82"
       style="stroke:#2c46f9;stroke-opacity:1;fill:none;fill-opacity:1" /><use
       xlink:href="#qtr"
       transform="scale(-1)"
       id="use83"
       style="stroke:#2c46f9;stroke-opacity:1;fill:none;fill-opacity:1" /></g><g
     id="g87"
     transform="matrix(0.50116816,0,0,0.50116816,-99.352474,-140.97035)"><path
       fill-rule="evenodd"
       clip-rule="evenodd"
       fill="#f6d2a2"
       stroke="#000000"
       stroke-width="3"
       stroke-linecap="round"
       d="m 10.634,300.493 c 0.764,15.751 16.499,8.463 23.626,3.539 6.765,-4.675 8.743,-0.789 9.337,-10.015 0.389,-6.064 1.088,-12.128 0.744,-18.216 -10.23,-0.927 -21.357,1.509 -29.744,7.602 -4.32,3.139 -12.42,13.158 -3.963,17.09"
       id="path1-9" /><path
       fill-rule="evenodd"
       clip-rule="evenodd"
       fill="#c6b198"
       stroke="#000000"
       stroke-width="3"
       stroke-linecap="round"
       d="m 10.634,300.493 c 2.29,-0.852 4.717,-1.457 6.271,-3.528"
       id="path2-9" /><path
       fill-rule="evenodd"
       clip-rule="evenodd"
       fill="#6ad7e5"
       stroke="#000000"
       stroke-width="3"
       stroke-linecap="round"
       d="M 46.997,112.853 C -13.3,95.897 31.536,19.189 79.956,50.74 Z"
       id="path3-7" /><path
       fill-rule="evenodd"
       clip-rule="evenodd"
       fill="#6ad7e5"
       stroke="#000000"
       stroke-width="3"
       stroke-linecap="round"
       d="m 314.895,44.984 c 47.727,-33.523 90.856,42.111 35.388,61.141 z"
       id="path4-0" /><path
       fill-rule="evenodd"
       clip-rule="evenodd"
       fill="#f6d2a2"
       stroke="#000000"
       stroke-width="3"
       stroke-linecap="round"
       d="m 325.161,494.343 c 12.123,7.501 34.282,30.182 16.096,41.18 -17.474,15.999 -27.254,-17.561 -42.591,-22.211 6.605,-8.97 14.977,-17.149 26.495,-18.969 z"
       id="path5-3" /><path
       fill-rule="evenodd"
       clip-rule="evenodd"
       fill="none"
       stroke="#000000"
       stroke-width="3"
       stroke-linecap="round"
       d="m 341.257,535.522 c -2.696,-5.361 -3.601,-11.618 -8.102,-15.939"
       id="path6-9" /><path
       fill-rule="evenodd"
       clip-rule="evenodd"
       fill="#f6d2a2"
       stroke="#000000"
       stroke-width="3"
       stroke-linecap="round"
       d="m 108.579,519.975 c -14.229,2.202 -22.238,15.039 -34.1,21.558 -11.178,6.665 -15.454,-2.134 -16.461,-3.92 -1.752,-0.799 -1.605,0.744 -4.309,-1.979 -10.362,-16.354 10.797,-28.308 21.815,-36.432 15.346,-3.102 24.963,10.202 33.055,20.773 z"
       id="path7-8" /><path
       fill-rule="evenodd"
       clip-rule="evenodd"
       fill="none"
       stroke="#000000"
       stroke-width="3"
       stroke-linecap="round"
       d="m 58.019,537.612 c 0.542,-6.233 5.484,-10.407 7.838,-15.677"
       id="path8-6" /><path
       fill-rule="evenodd"
       clip-rule="evenodd"
       d="M 49.513,91.667 C 41.558,87.459 35.722,81.744 40.588,72.543 45.093,64.025 53.462,64.95 61.418,69.158 Z"
       id="path9-5" /><path
       fill-rule="evenodd"
       clip-rule="evenodd"
       d="m 337.716,83.667 c 7.955,-4.208 13.791,-9.923 8.925,-19.124 -4.505,-8.518 -12.874,-7.593 -20.83,-3.385 z"
       id="path10-7" /><path
       fill-rule="evenodd"
       clip-rule="evenodd"
       fill="#f6d2a2"
       stroke="#000000"
       stroke-width="3"
       stroke-linecap="round"
       d="m 392.475,298.493 c -0.764,15.751 -16.499,8.463 -23.626,3.539 -6.765,-4.675 -8.743,-0.789 -9.337,-10.015 -0.389,-6.064 -1.088,-12.128 -0.744,-18.216 10.23,-0.927 21.357,1.509 29.744,7.602 4.319,3.139 12.42,13.158 3.963,17.09"
       id="path11-6" /><path
       fill-rule="evenodd"
       clip-rule="evenodd"
       fill="#c6b198"
       stroke="#000000"
       stroke-width="3"
       stroke-linecap="round"
       d="m 392.475,298.493 c -2.29,-0.852 -4.717,-1.457 -6.271,-3.528"
       id="path12-2" /><g
       id="g13">
	<path
   fill-rule="evenodd"
   clip-rule="evenodd"
   fill="#6ad7e5"
   stroke="#000000"
   stroke-width="3"
   stroke-linecap="round"
   d="m 195.512,13.124 c 60.365,0 116.953,8.633 146.452,66.629 26.478,65.006 17.062,135.104 21.1,203.806 3.468,58.992 11.157,127.145 -16.21,181.812 -28.79,57.514 -100.73,71.982 -160,69.863 C 140.299,533.568 84.06,518.38 57.785,475.845 26.959,425.945 41.553,351.747 43.792,296.223 46.444,230.452 25.977,164.481 47.584,100.122 69.999,33.359 130.451,18.271 195.512,13.124"
   id="path13-7" />
</g><path
       fill-rule="evenodd"
       clip-rule="evenodd"
       fill="#ffffff"
       stroke="#000000"
       stroke-width="2.9081"
       stroke-linecap="round"
       d="m 206.169,94.16 c 10.838,63.003 113.822,46.345 99.03,-17.197 -13.264,-56.98 -102.632,-41.208 -99.03,17.197"
       id="path14-0" /><path
       fill-rule="evenodd"
       clip-rule="evenodd"
       fill="#ffffff"
       stroke="#000000"
       stroke-width="2.8214"
       stroke-linecap="round"
       d="M 83.103,104.35 C 97.15,159.2 184.967,145.157 181.657,90.137 177.691,24.242 69.673,36.957 83.103,104.35"
       id="path15-3" /><path
       fill-rule="evenodd"
       clip-rule="evenodd"
       fill="#ffffff"
       stroke="#000000"
       stroke-width="3"
       stroke-linecap="round"
       d="m 218.594,169.762 c 0.046,8.191 1.861,17.387 0.312,26.101 -2.091,3.952 -6.193,4.37 -9.729,5.967 -4.89,-0.767 -9.002,-3.978 -10.963,-8.552 -1.255,-9.946 0.468,-19.576 0.785,-29.526 z"
       id="path16-9" /><g
       id="g17">
	<ellipse
   fill-rule="evenodd"
   clip-rule="evenodd"
   cx="107.324"
   cy="95.403999"
   rx="14.829"
   ry="16.062"
   id="ellipse16" />
	<ellipse
   fill-rule="evenodd"
   clip-rule="evenodd"
   fill="#ffffff"
   cx="114.069"
   cy="99.028999"
   rx="3.4960001"
   ry="4.0819998"
   id="ellipse17" />
</g><g
       id="g19">
	<ellipse
   fill-rule="evenodd"
   clip-rule="evenodd"
   cx="231.571"
   cy="91.403999"
   rx="14.582"
   ry="16.062"
   id="ellipse18" />
	<ellipse
   fill-rule="evenodd"
   clip-rule="evenodd"
   fill="#ffffff"
   cx="238.20399"
   cy="95.028999"
   rx="3.438"
   ry="4.0819998"
   id="ellipse19" />
</g><path
       fill-rule="evenodd"
       clip-rule="evenodd"
       fill="#ffffff"
       stroke="#000000"
       stroke-width="3"
       stroke-linecap="round"
       d="m 176.217,168.87 c -6.47,15.68 3.608,47.035 21.163,23.908 -1.255,-9.946 0.468,-19.576 0.785,-29.526 z"
       id="path19-9" /><g
       id="g21">
	<path
   fill-rule="evenodd"
   clip-rule="evenodd"
   fill="#f6d2a2"
   stroke="#231f20"
   stroke-width="3"
   stroke-linecap="round"
   d="m 178.431,138.673 c -12.059,1.028 -21.916,15.366 -15.646,26.709 8.303,15.024 26.836,-1.329 38.379,0.203 13.285,0.272 24.17,14.047 34.84,2.49 11.867,-12.854 -5.109,-25.373 -18.377,-30.97 z"
   id="path20-9" />
	<path
   fill-rule="evenodd"
   clip-rule="evenodd"
   d="m 176.913,138.045 c -0.893,-20.891 38.938,-23.503 43.642,-6.016 4.692,17.446 -41.681,21.498 -43.642,6.016 -1.565,-12.363 0,0 0,0 z"
   id="path21-1" />
</g></g></svg>
